<svg width="603" height="912" viewBox="0 0 603 912" fill="none" xmlns="http://www.w3.org/2000/svg">
<path d="M505 0L404.637 72.4325L304.275 0V162.973H505V0Z" fill="white"/>
<path d="M501.814 667.027L401.451 739.459L301.089 667.027V830H501.814V667.027Z" fill="white"/>
<path d="M304.275 162.973L250.907 199.189L200.726 162.973V244.46H301.089L304.275 162.973Z" fill="white"/>
<path d="M200.726 504.053L150.544 540.269L100.363 504.053V585.54H200.726V504.053Z" fill="white"/>
<path d="M200.726 244.46L150.544 280.676L100.363 244.46V325.946H200.726V244.46Z" fill="white"/>
<path d="M100.363 585.54L50.1815 621.757L0 585.54V667.027H100.363V585.54Z" fill="white"/>
<path d="M100.363 325.946L50.1815 362.162L0 325.946V407.433H100.363V325.946Z" fill="white"/>
<path d="M401.451 244.46L351.27 280.676L301.089 244.46V325.946H401.451V244.46Z" fill="white"/>
<path d="M301.089 585.54L250.907 621.757L200.726 585.54V667.027H301.089V585.54Z" fill="white"/>
<path d="M602.177 830L551.995 866.217L501.814 830L501.814 911.487H602.177V830Z" fill="white"/>
</svg>
