<svg width="17" height="9" viewBox="0 0 17 9" fill="none" xmlns="http://www.w3.org/2000/svg">
<path d="M11.3681 0.367191C11.858 -0.122579 12.6517 -0.122622 13.1415 0.367191L16.0986 3.32325L16.1845 3.41895C16.5861 3.91158 16.5577 4.63852 16.0986 5.09766L13.1415 8.05371C12.6517 8.54347 11.8579 8.54342 11.3681 8.05371C10.8783 7.56389 10.8783 6.77012 11.3681 6.28028L13.4365 4.20996L11.3681 2.14063C10.8783 1.65079 10.8783 0.857027 11.3681 0.367191Z" fill="#222222"/>
<path d="M5.09686 0.367344C4.60702 -0.122426 3.81323 -0.12247 3.32342 0.367344L0.366388 3.3234L0.28045 3.4191C-0.121115 3.91173 -0.0926852 4.63867 0.366388 5.09781L3.32342 8.05387C3.81322 8.54362 4.60702 8.54357 5.09686 8.05387C5.58668 7.56404 5.58665 6.77027 5.09686 6.28043L3.0285 4.21012L5.09686 2.14078C5.58669 1.65094 5.58669 0.85718 5.09686 0.367344Z" fill="#222222"/>
</svg>
