<svg width="141" height="33" viewBox="0 0 141 33" fill="none" xmlns="http://www.w3.org/2000/svg">
<path d="M0 28.0778V14.4975H5.57851V16.845C5.72996 16.6936 5.96556 16.4664 6.28529 16.1635C6.60502 15.8606 7.02573 15.5661 7.5474 15.28C8.0859 14.994 8.72536 14.7415 9.4658 14.5228C10.2062 14.304 11.0645 14.1946 12.0405 14.1946H12.2172C13.6644 14.1946 14.8255 14.4555 15.7006 14.9771C16.5757 15.4988 17.2235 16.1383 17.6442 16.8955C17.8967 16.6431 18.2248 16.3654 18.6287 16.0625C19.0326 15.7428 19.5122 15.4483 20.0675 15.1791C20.6396 14.893 21.2875 14.6574 22.0111 14.4723C22.7516 14.2872 23.5761 14.1946 24.4849 14.1946H24.6868C25.8143 14.1946 26.7735 14.3545 27.5644 14.6742C28.3553 14.9771 29.0032 15.381 29.508 15.8858C30.0129 16.3907 30.3747 16.9628 30.5935 17.6023C30.8291 18.2249 30.9468 18.856 30.9468 19.4955V28.0778H25.2674V21.3634C25.2674 20.3705 25.0318 19.5628 24.5606 18.9401C24.0894 18.3007 23.2985 17.9809 22.1878 17.9809C21.582 17.9809 21.0351 18.0735 20.5471 18.2586C20.0759 18.4437 19.672 18.7045 19.3355 19.0411C18.9989 19.3608 18.7381 19.7479 18.553 20.2022C18.3847 20.6566 18.3005 21.1446 18.3005 21.6663V28.0778H12.6211V21.3634C12.6211 20.3705 12.3771 19.5628 11.889 18.9401C11.4179 18.3007 10.6269 17.9809 9.51628 17.9809C8.91047 17.9809 8.36356 18.0735 7.87554 18.2586C7.40436 18.4437 7.00048 18.7045 6.66392 19.0411C6.32736 19.3608 6.06652 19.7479 5.88142 20.2022C5.71313 20.6566 5.62899 21.1446 5.62899 21.6663V28.0778H0Z" fill="#222222"/>
<path d="M42.4158 28.4564C40.447 28.4564 38.8315 28.2377 37.5694 27.8001C36.3073 27.3626 35.306 26.8073 34.5655 26.1341C33.8419 25.4442 33.3371 24.6869 33.051 23.8624C32.7818 23.0378 32.6471 22.23 32.6471 21.4391V20.9848C32.6471 20.2107 32.7818 19.4197 33.051 18.612C33.3371 17.7874 33.8419 17.047 34.5655 16.3907C35.2892 15.7176 36.282 15.1706 37.5441 14.7499C38.8062 14.3292 40.4217 14.1189 42.3906 14.1189H44.1828C46.2527 14.1189 47.9186 14.3377 49.1807 14.7752C50.4597 15.1959 51.4441 15.7428 52.1341 16.4159C52.8408 17.0722 53.312 17.8042 53.5476 18.612C53.7832 19.4197 53.901 20.2107 53.901 20.9848V21.4391C53.901 22.23 53.7832 23.0378 53.5476 23.8624C53.3289 24.6869 52.8745 25.4442 52.1846 26.1341C51.4946 26.8073 50.5102 27.3626 49.2312 27.8001C47.9691 28.2377 46.2863 28.4564 44.1828 28.4564H42.4158ZM43.2993 24.7963C44.2585 24.7963 45.0494 24.6869 45.6721 24.4682C46.3115 24.2494 46.8164 23.9717 47.1866 23.6352C47.5568 23.2986 47.8177 22.9284 47.9691 22.5245C48.1206 22.1038 48.1963 21.6915 48.1963 21.2877V21.1614C48.1963 20.7407 48.1206 20.3285 47.9691 19.9246C47.8177 19.5039 47.5568 19.1337 47.1866 18.8139C46.8164 18.4942 46.3115 18.2334 45.6721 18.0314C45.0494 17.8295 44.2669 17.7285 43.3246 17.7285H43.2993C42.3401 17.7285 41.5408 17.8295 40.9013 18.0314C40.2787 18.2165 39.7822 18.4774 39.412 18.8139C39.0418 19.1337 38.781 19.5039 38.6295 19.9246C38.4781 20.3285 38.4023 20.7407 38.4023 21.1614V21.2877C38.4023 21.6915 38.4781 22.1038 38.6295 22.5245C38.781 22.9284 39.0418 23.2986 39.412 23.6352C39.7822 23.9717 40.2787 24.2494 40.9013 24.4682C41.5408 24.6869 42.3401 24.7963 43.2993 24.7963Z" fill="#222222"/>
<path d="M55.6362 14.4975H61.2147V16.8198C61.383 16.6515 61.6354 16.4243 61.972 16.1383C62.3254 15.8354 62.7713 15.5409 63.3098 15.2548C63.8651 14.9687 64.5214 14.7247 65.2787 14.5228C66.0528 14.304 66.9447 14.1946 67.9544 14.1946H68.1311C69.309 14.1946 70.3187 14.3461 71.1601 14.649C72.0015 14.9519 72.6831 15.3558 73.2047 15.8606C73.7432 16.3654 74.1303 16.9376 74.3659 17.5771C74.6183 18.1997 74.7445 18.8392 74.7445 19.4955V28.0778H69.065V21.3634C69.065 20.32 68.7705 19.4955 68.1815 18.8897C67.5926 18.2838 66.6754 17.9809 65.4302 17.9809C64.1681 17.9809 63.1584 18.3175 62.4011 18.9906C61.6438 19.6637 61.2652 20.5556 61.2652 21.6663V28.0778H55.6362V14.4975Z" fill="#222222"/>
<path d="M86.5738 17.2742C85.1602 17.2742 84.1085 17.4761 83.4185 17.88C82.7286 18.2838 82.2742 18.8476 82.0555 19.5712H91.1426C90.9575 18.8476 90.5116 18.2838 89.8048 17.88C89.098 17.4761 88.0294 17.2742 86.599 17.2742H86.5738ZM96.7464 23.307C96.7464 23.7614 96.637 24.2915 96.4182 24.8973C96.2163 25.4863 95.7872 26.05 95.1309 26.5885C94.4746 27.1102 93.5322 27.5561 92.3038 27.9263C91.0753 28.2797 89.4514 28.4564 87.432 28.4564H85.9932C84.1758 28.4564 82.6528 28.2629 81.4244 27.8759C80.2128 27.4888 79.2367 26.9755 78.4963 26.3361C77.7559 25.6798 77.2258 24.9394 76.9061 24.1148C76.5863 23.2734 76.4265 22.4067 76.4265 21.5148V20.9595C76.4265 20.0844 76.5695 19.243 76.8556 18.4353C77.1585 17.6107 77.6633 16.8787 78.3701 16.2392C79.0937 15.5998 80.0613 15.0865 81.2729 14.6995C82.4846 14.3124 84.0075 14.1189 85.8418 14.1189H87.3815C89.3673 14.1189 90.9743 14.3461 92.2028 14.8004C93.4481 15.2548 94.4073 15.8354 95.0804 16.5421C95.7703 17.2489 96.2331 18.0398 96.4687 18.9149C96.7043 19.7731 96.8221 20.6145 96.8221 21.4391V22.3731H81.9545C82.1228 23.164 82.5771 23.8035 83.3176 24.2915C84.058 24.7795 85.2023 25.0235 86.7505 25.0235H86.7757C87.7013 25.0235 88.4501 24.9478 89.0223 24.7963C89.5944 24.6449 90.0404 24.4766 90.3601 24.2915C90.6798 24.0895 90.8902 23.896 90.9912 23.7109C91.109 23.509 91.1763 23.3659 91.1931 23.2818H96.7464V23.307Z" fill="#222222"/>
<path d="M108.272 17.7033C107.363 17.7033 106.606 17.7958 106 17.9809C105.411 18.1492 104.94 18.3764 104.586 18.6625C104.233 18.9317 103.98 19.2515 103.829 19.6217C103.694 19.9919 103.627 20.3621 103.627 20.7323V20.8585C103.627 21.2456 103.703 21.6326 103.854 22.0197C104.022 22.3899 104.283 22.7265 104.637 23.0294C105.007 23.3154 105.487 23.551 106.076 23.7361C106.681 23.9213 107.413 24.0138 108.272 24.0138H108.423C109.315 24.0138 110.081 23.9297 110.72 23.7614C111.376 23.5763 111.906 23.3407 112.31 23.0546C112.731 22.7517 113.042 22.4151 113.244 22.0449C113.446 21.6579 113.547 21.2708 113.547 20.8838V20.7828C113.547 20.3789 113.446 19.9919 113.244 19.6217C113.042 19.2515 112.731 18.9233 112.31 18.6372C111.89 18.3512 111.351 18.124 110.695 17.9557C110.055 17.7874 109.298 17.7033 108.423 17.7033H108.272ZM107.969 33C106.555 33 105.343 32.9075 104.334 32.7223C103.324 32.5372 102.474 32.2932 101.784 31.9903C101.094 31.6874 100.547 31.3509 100.144 30.9806C99.7397 30.6104 99.4284 30.2486 99.2096 29.8952C99.0077 29.5418 98.8731 29.2053 98.8058 28.8855C98.7553 28.5826 98.73 28.3386 98.73 28.1535V28.0778H104.41C104.426 28.1619 104.477 28.2713 104.561 28.4059C104.662 28.5574 104.855 28.7004 105.142 28.8351C105.444 28.9697 105.882 29.0875 106.454 29.1884C107.026 29.2894 107.792 29.3399 108.751 29.3399H108.827C109.87 29.3399 110.712 29.2137 111.351 28.9613C111.991 28.7257 112.479 28.4228 112.815 28.0525C113.169 27.6655 113.396 27.2448 113.497 26.7904C113.614 26.3193 113.673 25.8649 113.673 25.4274C113.505 25.5788 113.261 25.7723 112.941 26.0079C112.638 26.2435 112.226 26.4707 111.704 26.6895C111.2 26.8914 110.56 27.0765 109.786 27.2448C109.029 27.3963 108.12 27.472 107.06 27.472H106.757C105.158 27.472 103.795 27.3037 102.668 26.9671C101.557 26.6137 100.648 26.1426 99.9417 25.5536C99.2349 24.9478 98.7132 24.2578 98.3767 23.4837C98.0569 22.6928 97.897 21.8598 97.897 20.9848V20.4799C97.897 19.6553 98.0401 18.8644 98.3262 18.1071C98.6122 17.3499 99.075 16.6852 99.7145 16.113C100.354 15.524 101.187 15.0529 102.213 14.6995C103.257 14.3461 104.536 14.1694 106.05 14.1694H106.58C107.708 14.1694 108.675 14.2535 109.483 14.4218C110.291 14.5733 110.972 14.7668 111.528 15.0024C112.083 15.2211 112.529 15.4567 112.866 15.7091C113.202 15.9447 113.463 16.1467 113.648 16.315V14.4975H119.302V25.6041C119.302 26.0079 119.26 26.4791 119.176 27.0176C119.092 27.5393 118.924 28.0694 118.671 28.6079C118.436 29.1632 118.099 29.7017 117.662 30.2234C117.224 30.745 116.652 31.2078 115.945 31.6117C115.238 32.0324 114.372 32.369 113.345 32.6214C112.336 32.8738 111.141 33 109.761 33H107.969Z" fill="#222222"/>
<path d="M133.665 21.6158L128.288 22.4488C127.565 22.5666 127.043 22.7096 126.723 22.8779C126.404 23.0462 126.244 23.3239 126.244 23.7109V23.7361C126.244 23.9213 126.277 24.1064 126.345 24.2915C126.429 24.4766 126.563 24.6449 126.749 24.7963C126.951 24.9309 127.203 25.0487 127.506 25.1497C127.826 25.2338 128.229 25.2759 128.717 25.2759C129.475 25.2759 130.156 25.1834 130.762 24.9983C131.368 24.8131 131.881 24.5691 132.302 24.2662C132.739 23.9633 133.076 23.6183 133.312 23.2313C133.547 22.8443 133.665 22.4488 133.665 22.0449V21.6158ZM133.816 26.2099C133.665 26.395 133.438 26.6053 133.135 26.8409C132.832 27.0765 132.428 27.3121 131.923 27.5477C131.435 27.7665 130.829 27.9516 130.106 28.103C129.399 28.2545 128.541 28.3302 127.531 28.3302H127.203C126.059 28.3302 125.083 28.2124 124.275 27.9768C123.484 27.7244 122.836 27.3963 122.331 26.9924C121.826 26.5717 121.456 26.1005 121.221 25.5788C121.002 25.0403 120.892 24.4766 120.892 23.8876V23.7109C120.892 22.4656 121.33 21.5233 122.205 20.8838C123.097 20.2443 124.561 19.832 126.597 19.6469L132.807 19.0663C133.126 19.0327 133.345 18.9654 133.463 18.8644C133.598 18.7466 133.665 18.5783 133.665 18.3596C133.665 18.2418 133.631 18.1156 133.564 17.9809C133.514 17.8463 133.37 17.7285 133.135 17.6275C132.899 17.5098 132.546 17.4172 132.075 17.3499C131.604 17.2826 130.956 17.2489 130.131 17.2489H130.005C129.163 17.2489 128.507 17.3078 128.036 17.4256C127.565 17.5434 127.211 17.6864 126.976 17.8547C126.757 18.0062 126.614 18.166 126.547 18.3343C126.496 18.5026 126.463 18.6456 126.446 18.7634H121.221V18.713C121.221 18.4101 121.246 18.0903 121.296 17.7538C121.347 17.4004 121.456 17.0554 121.624 16.7188C121.81 16.3823 122.079 16.0625 122.432 15.7596C122.786 15.4399 123.257 15.1622 123.846 14.9266C124.452 14.6742 125.2 14.4807 126.092 14.3461C126.984 14.1946 128.061 14.1189 129.323 14.1189H130.712C132.681 14.1189 134.22 14.2535 135.331 14.5228C136.458 14.792 137.3 15.1454 137.855 15.5829C138.41 16.0036 138.755 16.4748 138.89 16.9965C139.025 17.5182 139.092 18.023 139.092 18.511V23.7109C139.092 23.9128 139.134 24.0811 139.218 24.2157C139.319 24.3335 139.513 24.3924 139.799 24.3924H140.531V28.0778H135.962C135.423 28.0778 134.952 27.9263 134.548 27.6234C134.161 27.3205 133.917 26.8493 133.816 26.2099Z" fill="#222222"/>
<path d="M36.4898 0L42.9654 4.70952L49.441 0V10.5964H36.4898V0Z" fill="#FF4F03"/>
</svg>
