<svg width="32" height="32" viewBox="0 0 32 32" fill="none" xmlns="http://www.w3.org/2000/svg">
<rect width="32" height="32" rx="16" fill="white"/>
<path d="M15.1924 29C13.3397 29 11.8195 28.8016 10.6318 28.4049C9.44418 28.0082 8.50198 27.5047 7.80522 26.8944C7.12431 26.2688 6.64925 25.5822 6.38005 24.8345C6.12668 24.0869 6 23.3545 6 22.6373V22.2254C6 21.5235 6.12668 20.8063 6.38005 20.0739C6.64925 19.3263 7.12431 18.6549 7.80522 18.0599C8.48614 17.4495 9.42043 16.9536 10.6081 16.5722C11.7957 16.1907 13.3159 16 15.1686 16H16.8551C18.8028 16 20.3705 16.1984 21.5582 16.5951C22.7617 16.9765 23.688 17.4724 24.3373 18.0827C25.0024 18.6778 25.4458 19.3415 25.6675 20.0739C25.8892 20.8063 26 21.5235 26 22.2254V22.6373C26 23.3545 25.8892 24.0869 25.6675 24.8345C25.4616 25.5822 25.034 26.2688 24.3848 26.8944C23.7355 27.5047 22.8092 28.0082 21.6057 28.4049C20.418 28.8016 18.8345 29 16.8551 29H15.1924ZM16.0238 25.6813C16.9264 25.6813 17.6706 25.5822 18.2565 25.3838C18.8583 25.1854 19.3333 24.9337 19.6817 24.6285C20.0301 24.3234 20.2755 23.9877 20.4181 23.6215C20.5606 23.24 20.6318 22.8662 20.6318 22.5V22.3856C20.6318 22.0041 20.5606 21.6303 20.4181 21.2641C20.2755 20.8826 20.0301 20.5469 19.6817 20.257C19.3333 19.9671 18.8583 19.7306 18.2565 19.5475C17.6706 19.3644 16.9343 19.2729 16.0475 19.2729H16.0238C15.1211 19.2729 14.369 19.3644 13.7672 19.5475C13.1813 19.7154 12.7142 19.9519 12.3658 20.257C12.0174 20.5469 11.772 20.8826 11.6295 21.2641C11.4869 21.6303 11.4157 22.0041 11.4157 22.3856V22.5C11.4157 22.8662 11.4869 23.24 11.6295 23.6215C11.772 23.9877 12.0174 24.3234 12.3658 24.6285C12.7142 24.9337 13.1813 25.1854 13.7672 25.3838C14.369 25.5822 15.1211 25.6813 16.0238 25.6813Z" fill="#222222"/>
<path d="M10 3L16 7.44444L22 3V13H10V3Z" fill="#FF4F03"/>
</svg>
