<svg width="18" height="16" viewBox="0 0 18 16" fill="none" xmlns="http://www.w3.org/2000/svg">
<path d="M5.32693 4.26268C4.77465 4.26268 4.32693 4.7104 4.32693 5.26268C4.32693 5.81497 4.77465 6.26268 5.32693 6.26268V4.26268ZM9.64363 6.26268C10.1959 6.26268 10.6436 5.81497 10.6436 5.26268C10.6436 4.7104 10.1959 4.26268 9.64363 4.26268V6.26268ZM3.98828 1.97934V2.97934H11.9912V1.97934V0.97934H3.98828V1.97934ZM11.9912 14.0121V13.0121H3.98828V14.0121V15.0121H11.9912V14.0121ZM1.98828 12.0121H2.98828V3.97934H1.98828H0.988281V12.0121H1.98828ZM13.9912 3.97934H12.9912V5.97977H13.9912H14.9912V3.97934H13.9912ZM13.9912 10.0455H12.9912V12.0121H13.9912H14.9912V10.0455H13.9912ZM3.98828 14.0121V13.0121C3.436 13.0121 2.98828 12.5643 2.98828 12.0121H1.98828H0.988281C0.988281 13.6689 2.33143 15.0121 3.98828 15.0121V14.0121ZM11.9912 14.0121V15.0121C13.6481 15.0121 14.9912 13.6689 14.9912 12.0121H13.9912H12.9912C12.9912 12.5643 12.5435 13.0121 11.9912 13.0121V14.0121ZM11.9912 1.97934V2.97934C12.5435 2.97934 12.9912 3.42705 12.9912 3.97934H13.9912H14.9912C14.9912 2.32249 13.6481 0.97934 11.9912 0.97934V1.97934ZM3.98828 1.97934V0.97934C2.33143 0.97934 0.988281 2.32249 0.988281 3.97934H1.98828H2.98828C2.98828 3.42706 3.436 2.97934 3.98828 2.97934V1.97934ZM5.32693 5.26268V6.26268H9.64363V5.26268V4.26268H5.32693V5.26268ZM14.0206 9.99562V8.99562C13.4683 8.99562 13.0206 8.54791 13.0206 7.99562H12.0206H11.0206C11.0206 9.65247 12.3637 10.9956 14.0206 10.9956V9.99562ZM16.0206 7.99562H15.0206C15.0206 8.54791 14.5729 8.99562 14.0206 8.99562V9.99562V10.9956C15.6774 10.9956 17.0206 9.65247 17.0206 7.99562H16.0206ZM14.0206 5.99562V6.99562C14.5729 6.99562 15.0206 7.44334 15.0206 7.99562H16.0206H17.0206C17.0206 6.33877 15.6774 4.99562 14.0206 4.99562V5.99562ZM14.0206 5.99562V4.99562C12.3637 4.99562 11.0206 6.33877 11.0206 7.99562H12.0206H13.0206C13.0206 7.44334 13.4683 6.99562 14.0206 6.99562V5.99562Z" fill="#222222"/>
</svg>
